<svg xmlns="http://www.w3.org/2000/svg" xmlns:xlink="http://www.w3.org/1999/xlink" width="2000" zoomAndPan="magnify" viewBox="0 0 1500 1499.999933" height="2000" preserveAspectRatio="xMidYMid meet" version="1.0"><rect x="-150" width="1800" fill="#0b090a" y="-149.999993" height="1799.99992" fill-opacity="1"/><path fill="#ba181b" d="M 361.25 85 C 362.988281 84.886719 364.730469 84.835938 366.476562 84.84375 L 369.921875 84.832031 L 373.753906 84.84375 L 377.804688 84.835938 C 382.34375 84.832031 386.882812 84.835938 391.421875 84.839844 L 401.210938 84.835938 C 408.335938 84.832031 415.460938 84.832031 422.589844 84.835938 C 433.183594 84.839844 443.78125 84.835938 454.375 84.832031 C 473.296875 84.828125 492.214844 84.824219 511.136719 84.828125 C 527.695312 84.832031 544.253906 84.835938 560.808594 84.832031 L 577.484375 84.832031 C 619.273438 84.828125 661.058594 84.828125 702.847656 84.835938 C 740.003906 84.84375 777.164062 84.84375 814.324219 84.835938 C 860.460938 84.824219 906.609375 84.820312 952.773438 84.832031 L 956.085938 84.832031 C 972.636719 84.835938 989.1875 84.832031 1005.738281 84.828125 C 1024.550781 84.828125 1043.363281 84.828125 1062.171875 84.832031 C 1072.710938 84.835938 1083.25 84.835938 1093.789062 84.832031 C 1101.640625 84.832031 1109.488281 84.832031 1117.339844 84.839844 C 1120.53125 84.839844 1123.71875 84.839844 1126.910156 84.835938 C 1131.21875 84.832031 1135.527344 84.835938 1139.839844 84.84375 L 1143.664062 84.832031 L 1147.117188 84.84375 L 1150.105469 84.84375 C 1152.5 85 1152.5 85 1155 86.25 C 1155.121094 156.152344 1155.242188 226.058594 1155.355469 295.960938 L 1155.363281 299.167969 L 1155.535156 402.359375 L 1155.539062 405.773438 C 1155.597656 439.230469 1155.652344 472.6875 1155.710938 506.140625 C 1155.867188 560.25 1155.960938 614.355469 1155.980469 668.464844 C 1156.152344 773.730469 1156.277344 878.996094 1156.25 1211.25 C 1080.476562 1211.273438 1004.699219 1211.289062 928.925781 1211.300781 L 925.527344 1211.300781 L 816.65625 1211.320312 L 813.058594 1211.320312 C 774.507812 1211.324219 735.957031 1211.332031 697.40625 1211.34375 C 652.214844 1211.355469 607.03125 1211.363281 561.855469 1211.367188 L 558.519531 1211.367188 C 540.785156 1211.371094 523.046875 1211.375 505.3125 1211.382812 C 487.503906 1211.390625 469.695312 1211.394531 451.886719 1211.390625 C 441.292969 1211.390625 430.699219 1211.394531 420.101562 1211.402344 C 412.214844 1211.40625 404.324219 1211.40625 396.433594 1211.402344 C 393.226562 1211.398438 390.019531 1211.402344 386.808594 1211.40625 C 382.480469 1211.410156 378.148438 1211.410156 373.820312 1211.402344 L 369.964844 1211.414062 L 366.503906 1211.40625 L 363.496094 1211.40625 L 361.25 1211.25 L 360 1210 C 359.875 1207.550781 359.84375 1205.09375 359.84375 1202.640625 L 359.832031 1197.753906 L 359.84375 1192.300781 L 359.835938 1186.546875 C 359.832031 1181.226562 359.835938 1175.910156 359.839844 1170.59375 C 359.839844 1164.824219 359.839844 1159.058594 359.835938 1153.289062 C 359.832031 1143.164062 359.832031 1133.039062 359.835938 1122.917969 C 359.835938 1107.863281 359.835938 1092.808594 359.832031 1077.753906 C 359.828125 1050.871094 359.824219 1023.992188 359.828125 997.109375 C 359.832031 973.585938 359.835938 950.0625 359.832031 926.539062 L 359.832031 902.855469 C 359.878906 844.328125 359.882812 785.8125 359.835938 727.3125 C 359.839844 660.15625 359.835938 593 359.832031 525.84375 L 359.832031 523.324219 C 359.765625 470.503906 359.765625 417.726562 359.832031 365 C 359.835938 341.488281 359.832031 317.972656 359.828125 294.457031 C 359.828125 267.734375 359.828125 241.007812 359.832031 214.285156 C 359.835938 199.308594 359.835938 184.335938 359.832031 169.359375 C 359.828125 159.375 359.832031 149.394531 359.835938 139.410156 C 359.839844 133.710938 359.839844 128.007812 359.835938 122.308594 C 359.832031 117.132812 359.835938 111.960938 359.839844 106.785156 C 359.839844 104.914062 359.839844 103.042969 359.835938 101.171875 C 359.835938 98.648438 359.835938 96.128906 359.84375 93.609375 L 359.84375 89.363281 L 360 86.25 Z M 361.25 85 " fill-opacity="1" fill-rule="nonzero"/><path fill="#0b090a" d="M 1065 758.75 L 1067.25 759.9375 C 1078.78125 766.023438 1090.242188 772.507812 1100 781.25 L 1100 783.75 L 1102.136719 784.632812 C 1113.355469 790.972656 1122.019531 805.355469 1128.535156 816.179688 C 1135.386719 828.191406 1140.222656 840.984375 1144.140625 854.21875 L 1145.015625 857.113281 C 1150.617188 877.296875 1151.800781 897.804688 1151.675781 918.632812 L 1151.675781 926.140625 C 1151.679688 932.855469 1151.65625 939.5625 1151.628906 946.273438 C 1151.605469 953.320312 1151.605469 960.363281 1151.601562 967.410156 C 1151.585938 980.710938 1151.558594 994.011719 1151.519531 1007.316406 C 1151.476562 1022.476562 1151.457031 1037.636719 1151.4375 1052.796875 C 1151.398438 1083.945312 1151.332031 1115.097656 1151.25 1146.25 C 1143.570312 1147.117188 1136.011719 1147.683594 1128.285156 1147.664062 L 1125.367188 1147.667969 C 1122.234375 1147.671875 1119.105469 1147.671875 1115.972656 1147.664062 C 1113.777344 1147.664062 1111.585938 1147.667969 1109.390625 1147.667969 C 1104.824219 1147.671875 1100.253906 1147.667969 1095.683594 1147.664062 C 1089.816406 1147.65625 1083.949219 1147.660156 1078.082031 1147.667969 C 1073.566406 1147.671875 1069.050781 1147.671875 1064.535156 1147.667969 C 1062.367188 1147.667969 1060.203125 1147.667969 1058.039062 1147.667969 C 1055.027344 1147.671875 1052.019531 1147.667969 1049.007812 1147.660156 L 1046.285156 1147.667969 C 1044.1875 1147.652344 1042.09375 1147.59375 1040 1147.5 L 1038.75 1146.25 C 1038.644531 1142.929688 1038.601562 1139.605469 1038.628906 1136.285156 L 1038.632812 1133.261719 C 1038.640625 1130.066406 1038.65625 1126.867188 1038.671875 1123.671875 C 1038.679688 1121.507812 1038.683594 1119.347656 1038.6875 1117.183594 C 1038.703125 1111.871094 1038.722656 1106.5625 1038.75 1101.25 L 1036.25 1100 L 1035.414062 1102.675781 C 1033.371094 1107.066406 1030.523438 1110.09375 1027.109375 1113.4375 L 1025.089844 1115.421875 C 1009.5 1130.335938 989.949219 1140.621094 969.234375 1146.492188 C 936.945312 1154.164062 903.917969 1154.625 871.25 1148.75 L 867.5 1147.5 L 867.5 1145 L 865.546875 1145.78125 C 857.160156 1147.070312 846.734375 1141.484375 838.929688 1138.460938 C 824.03125 1132.355469 809.992188 1122.507812 799.691406 1110.128906 C 797.324219 1107.292969 794.84375 1104.59375 792.34375 1101.875 C 779.359375 1087.121094 772.179688 1068.046875 768.316406 1048.910156 C 764.828125 1028.921875 768.617188 1007.8125 775.246094 988.828125 C 780.003906 976.605469 787.804688 966.164062 796.25 956.25 L 798.675781 953.070312 C 808.960938 940.796875 826.1875 933.015625 840.683594 926.871094 C 860.933594 919.5625 882.496094 916.125 903.910156 914.828125 L 906.4375 914.671875 C 929.96875 913.25 953.527344 913.464844 977.089844 913.578125 C 983.085938 913.601562 989.078125 913.617188 995.074219 913.628906 C 1006.714844 913.65625 1018.355469 913.695312 1030 913.75 C 1029.683594 909.398438 1029.335938 905.050781 1028.984375 900.703125 L 1028.71875 897.011719 C 1027.691406 884.71875 1024.417969 874.03125 1017.5 863.75 C 1010.757812 854.941406 1003.699219 848.65625 993.75 843.75 L 990.882812 842.316406 C 975.101562 835.261719 957.699219 834.351562 940.683594 834.441406 C 937.664062 834.453125 934.652344 834.417969 931.636719 834.378906 C 918.421875 834.320312 906.46875 836.175781 893.6875 839.441406 C 889.992188 840.285156 886.25 840.726562 882.5 841.25 C 879.824219 842.402344 879.824219 842.402344 877.5 843.75 C 875.6875 844.378906 873.863281 844.976562 872.03125 845.546875 C 868.410156 846.710938 865.375 847.945312 861.953125 849.6875 L 858.75 851.25 L 856.25 850 L 855 853.75 C 852.203125 855.558594 849.339844 857.25 846.40625 858.828125 C 838.585938 862.761719 838.585938 862.761719 831.953125 868.28125 L 830 870 L 825 870 C 823.53125 867.191406 822.070312 864.378906 820.625 861.5625 L 819.359375 859.160156 C 817.160156 854.851562 816.25 852.441406 816.25 847.5 L 813.75 847.5 C 812.699219 845.527344 811.65625 843.546875 810.625 841.5625 L 808.867188 838.222656 C 807.5 835 807.5 835 807.5 830 L 805 830 L 803.453125 827 C 801.546875 823.308594 799.640625 819.613281 797.730469 815.921875 L 795.261719 811.140625 C 794.074219 808.839844 792.882812 806.542969 791.695312 804.242188 L 789.53125 800.058594 C 788.21875 797.589844 786.832031 795.167969 785.371094 792.785156 C 783.75 790 783.75 790 783.632812 787.441406 C 785.375 784.332031 787.683594 782.878906 790.695312 781.070312 L 793.125 779.6875 L 795.664062 778.210938 C 866.105469 738.039062 990.113281 717.992188 1065 758.75 " fill-opacity="1" fill-rule="nonzero"/><path fill="#ba181b" d="M 1032.5 980 C 1034.851562 1023.230469 1034.851562 1023.230469 1029.53125 1035.15625 C 1023.285156 1046.359375 1014.0625 1056.730469 1003.03125 1063.375 C 982.132812 1074.582031 964.066406 1077.179688 940.585938 1076.683594 C 926.679688 1076.125 914.375 1072.457031 902.074219 1065.867188 C 895.082031 1061.414062 889.675781 1056.019531 885.78125 1048.671875 C 883.027344 1042.789062 881.210938 1037.011719 881.332031 1030.484375 C 882.949219 1018.429688 885.867188 1008.824219 893.359375 999.0625 C 900 991.898438 908.429688 987.785156 917.578125 984.6875 C 940.167969 978.585938 963.839844 979.441406 987.058594 979.175781 C 990.914062 979.128906 994.769531 979.066406 998.625 979.007812 C 1002.34375 978.949219 1006.066406 978.898438 1009.785156 978.847656 C 1011.558594 978.824219 1013.332031 978.800781 1015.105469 978.773438 C 1017.5625 978.734375 1020.023438 978.710938 1022.480469 978.683594 L 1026.710938 978.628906 C 1030 978.75 1030 978.75 1032.5 980 " fill-opacity="1" fill-rule="nonzero"/><path fill="#fefefd" d="M 580 1338.75 L 597.5 1338.515625 L 602.957031 1338.414062 C 611.59375 1338.355469 618.523438 1338.464844 626.25 1342.5 C 628.824219 1344.691406 628.824219 1344.691406 630.546875 1346.953125 L 632.339844 1349.222656 C 634.394531 1352.175781 635 1353.765625 635.386719 1357.425781 C 635.8125 1369.375 635.8125 1369.375 633.457031 1374.820312 C 630.5625 1379.207031 628.152344 1382.066406 623.75 1385 C 625.738281 1389.386719 628.371094 1393.023438 631.25 1396.875 C 634.140625 1400.742188 636.65625 1404.402344 638.75 1408.75 C 634.84375 1409.367188 631.386719 1409.578125 627.5 1408.75 C 624.484375 1405.882812 622.726562 1402.359375 620.703125 1398.75 C 618.304688 1394.972656 615.953125 1391.625 612.5 1388.75 C 605.191406 1386.335938 597.453125 1387.558594 590 1388.75 L 588.75 1408.75 L 580 1408.75 Z M 273.75 1338.75 L 282.5 1338.75 C 285.515625 1341.601562 285.515625 1341.601562 288.28125 1345.625 C 289.34375 1347.121094 290.414062 1348.617188 291.484375 1350.105469 L 293.1875 1352.519531 C 296.371094 1356.878906 299.839844 1361 303.28125 1365.15625 C 308.933594 1372.039062 314.300781 1379.011719 319.390625 1386.324219 C 321.078125 1388.890625 321.078125 1388.890625 323.75 1390 L 323.75 1338.75 L 333.75 1338.75 C 334.007812 1385.566406 334.007812 1385.566406 332.5 1408.75 C 329.234375 1409.304688 329.234375 1409.304688 325 1408.75 C 321.910156 1406.1875 319.652344 1403.050781 317.265625 1399.84375 L 315.140625 1397.105469 C 313.695312 1395.238281 312.257812 1393.367188 310.832031 1391.484375 C 308.332031 1388.199219 305.773438 1384.953125 303.210938 1381.714844 C 301.515625 1379.570312 299.835938 1377.417969 298.152344 1375.261719 C 294.417969 1370.480469 290.570312 1365.792969 286.703125 1361.113281 L 285 1358.75 L 285 1356.25 L 282.5 1356.25 L 282.5 1408.75 L 273.75 1408.75 Z M 1201.25 1338.75 L 1208.75 1338.75 C 1211.410156 1341.199219 1213.386719 1343.34375 1215.546875 1346.171875 L 1217.367188 1348.441406 C 1219.097656 1350.613281 1220.808594 1352.796875 1222.5 1355 L 1224.761719 1357.882812 C 1226.089844 1359.585938 1227.410156 1361.292969 1228.726562 1363.007812 C 1232.296875 1367.597656 1235.949219 1372.121094 1239.609375 1376.640625 L 1241.726562 1379.269531 C 1245.140625 1383.476562 1248.554688 1387.515625 1252.5 1391.25 L 1251.882812 1389.058594 C 1250.863281 1384.542969 1251.097656 1379.976562 1251.128906 1375.371094 L 1251.132812 1372.199219 C 1251.140625 1368.859375 1251.15625 1365.523438 1251.171875 1362.1875 C 1251.179688 1359.921875 1251.183594 1357.65625 1251.1875 1355.390625 C 1251.203125 1349.84375 1251.222656 1344.296875 1251.25 1338.75 L 1260 1338.75 C 1260.210938 1348.515625 1260.410156 1358.285156 1260.601562 1368.054688 C 1260.667969 1371.378906 1260.738281 1374.707031 1260.808594 1378.03125 C 1260.910156 1382.800781 1261.007812 1387.570312 1261.097656 1392.339844 L 1261.199219 1396.875 L 1261.277344 1401.046875 L 1261.351562 1404.738281 L 1261.25 1407.5 L 1260 1408.75 C 1256.507812 1409.203125 1256.507812 1409.203125 1252.5 1408.75 C 1249.703125 1406.226562 1249.703125 1406.226562 1247.109375 1402.734375 L 1244.183594 1398.90625 L 1241.25 1395 C 1239.4375 1392.777344 1237.613281 1390.5625 1235.78125 1388.359375 C 1229.710938 1380.941406 1223.796875 1373.402344 1217.902344 1365.847656 C 1215.699219 1363.050781 1213.472656 1360.277344 1211.25 1357.5 L 1210 1408.75 L 1201.25 1408.75 Z M 195 1338.75 C 199.257812 1339.847656 202.605469 1341.316406 206.25 1343.75 L 209.609375 1345.859375 C 214.8125 1351.0625 218.660156 1357.074219 221.71875 1363.75 C 223.347656 1371.570312 223.011719 1378.066406 220.546875 1385.703125 C 217.828125 1392.511719 214.308594 1397.703125 208.75 1402.5 C 202.382812 1406.851562 195.132812 1409.144531 187.5 1410 C 179.984375 1410.332031 173.996094 1408.617188 167.1875 1405.46875 C 161.921875 1402.613281 157.574219 1399.882812 153.976562 1395.054688 C 150.019531 1388.207031 147.273438 1380.917969 146.953125 1372.96875 C 147.304688 1366.972656 148.496094 1361.609375 151.25 1356.25 C 155.875 1349.605469 161.59375 1343.429688 168.894531 1339.765625 C 177.296875 1337.398438 186.390625 1337.675781 195 1338.75 M 170 1350 C 165.503906 1353.167969 162.015625 1356.378906 158.90625 1360.9375 C 156.972656 1366.527344 155.980469 1371.566406 156.25 1377.5 C 157.5 1383.136719 159.460938 1387.902344 163.226562 1392.320312 C 167.863281 1396.554688 172.714844 1399.410156 178.75 1401.25 C 185.292969 1402.132812 191.015625 1401.707031 197.1875 1399.296875 C 201.960938 1396.914062 205.160156 1393.960938 208.511719 1389.847656 C 211.027344 1385.882812 212.371094 1382.34375 212.921875 1377.664062 C 213.113281 1369.195312 213.113281 1369.195312 210.390625 1361.328125 C 205.933594 1355.425781 201.578125 1350.960938 195 1347.5 C 186.398438 1344.632812 177.867188 1345.546875 170 1350 M 1123.75 1338.75 C 1129.910156 1340.378906 1134.167969 1343.066406 1138.808594 1347.378906 C 1143.628906 1352.566406 1147.460938 1358.007812 1149.4375 1364.898438 C 1150.710938 1370.789062 1150.574219 1376.320312 1149.1875 1382.1875 C 1146.910156 1389.199219 1144.019531 1395.007812 1138.886719 1400.347656 C 1133.070312 1405.097656 1126.523438 1407.835938 1119.234375 1409.492188 C 1110.214844 1410.726562 1102.777344 1408.75 1094.21875 1406.09375 C 1087.652344 1402.445312 1083.5 1397.46875 1079.632812 1391.078125 C 1076.085938 1383.945312 1074.558594 1376.714844 1075 1368.75 C 1076.535156 1361.355469 1079.351562 1355.292969 1084.140625 1349.453125 C 1095.050781 1338.003906 1108.765625 1337.238281 1123.75 1338.75 M 1097.183594 1349.59375 C 1091.703125 1353.75 1087.828125 1358.617188 1085.078125 1364.921875 C 1083.722656 1369.148438 1083.382812 1372.898438 1084.21875 1377.324219 C 1085.835938 1382.863281 1087.894531 1387.78125 1091.25 1392.5 C 1095.828125 1396.476562 1100.5 1399.332031 1106.25 1401.25 C 1112.726562 1401.960938 1118.59375 1401.714844 1124.6875 1399.296875 C 1129.386719 1396.921875 1132.769531 1394.160156 1135.972656 1389.976562 C 1139.21875 1384.71875 1141.117188 1379.542969 1141.367188 1373.339844 C 1140.984375 1367.71875 1139.667969 1363.046875 1136.625 1358.289062 C 1132.917969 1353.636719 1128.660156 1349.917969 1123.300781 1347.320312 C 1114.742188 1344.546875 1104.980469 1344.976562 1097.183594 1349.59375 M 686.25 1338.75 L 696.25 1338.75 L 696.285156 1342.949219 C 696.335938 1348.132812 696.417969 1353.3125 696.511719 1358.496094 C 696.546875 1360.730469 696.570312 1362.964844 696.589844 1365.199219 C 696.617188 1368.429688 696.671875 1371.65625 696.738281 1374.882812 L 696.742188 1377.875 C 696.90625 1384.125 698.199219 1388.679688 701.113281 1394.21875 C 702.5625 1396.570312 702.5625 1396.570312 705.78125 1398.75 C 712.914062 1400.863281 719.488281 1400.382812 726.796875 1399.453125 L 730 1397.5 C 733.59375 1390.226562 734.324219 1382.746094 734.390625 1374.761719 L 734.457031 1371.613281 C 734.523438 1368.339844 734.566406 1365.070312 734.609375 1361.796875 C 734.648438 1359.558594 734.695312 1357.320312 734.738281 1355.085938 C 734.84375 1349.640625 734.929688 1344.195312 735 1338.75 L 745 1338.75 C 744.945312 1346.042969 744.855469 1353.335938 744.738281 1360.632812 C 744.703125 1363.109375 744.679688 1365.585938 744.660156 1368.066406 C 744.632812 1371.640625 744.578125 1375.214844 744.511719 1378.789062 L 744.507812 1382.113281 C 744.355469 1388.605469 743.261719 1393.394531 740.214844 1399.148438 C 737.523438 1403.011719 734.160156 1405.386719 730 1407.5 C 722.894531 1410.105469 717.015625 1410.25 709.515625 1409.335938 C 704.824219 1408.496094 701.652344 1407.410156 697.5 1405 C 692.191406 1399.8125 689.523438 1394.605469 687.5 1387.5 C 686.160156 1382.105469 686.085938 1376.863281 686.128906 1371.34375 L 686.132812 1368.511719 C 686.140625 1365.542969 686.15625 1362.574219 686.171875 1359.609375 C 686.179688 1357.589844 686.183594 1355.570312 686.1875 1353.550781 C 686.203125 1348.617188 686.222656 1343.683594 686.25 1338.75 M 1317.5 1338.75 L 1366.25 1338.75 L 1366.25 1345 C 1362.597656 1346.824219 1359.375 1346.386719 1355.300781 1346.371094 L 1352.789062 1346.367188 C 1350.140625 1346.359375 1347.492188 1346.34375 1344.84375 1346.328125 C 1343.046875 1346.320312 1341.253906 1346.316406 1339.457031 1346.3125 C 1335.054688 1346.296875 1330.652344 1346.273438 1326.25 1346.25 L 1326.25 1370 L 1361.25 1370 L 1361.25 1377.5 L 1327.5 1378.75 L 1326.25 1402.5 L 1334.683594 1402.183594 L 1342.738281 1401.898438 C 1344.609375 1401.832031 1346.480469 1401.761719 1348.347656 1401.691406 C 1351.03125 1401.589844 1353.714844 1401.492188 1356.402344 1401.402344 L 1361.300781 1401.222656 L 1365 1401.25 L 1366.25 1402.5 C 1366.40625 1405.625 1366.40625 1405.625 1366.25 1408.75 L 1365 1410 C 1361.484375 1410.109375 1358 1410.144531 1354.488281 1410.121094 L 1351.664062 1410.117188 C 1348.164062 1410.109375 1344.667969 1410.09375 1341.171875 1410.078125 L 1317.5 1410 Z M 426.40625 1339.21875 C 429.71875 1340.457031 431.996094 1341.75 435 1343.75 C 433.90625 1346.171875 433.90625 1346.171875 432.5 1348.75 L 430 1350 L 425.625 1348.203125 C 419.519531 1345.8125 413.988281 1345.335938 407.5 1346.25 C 403.683594 1347.359375 400.546875 1348.667969 397.5 1351.25 C 395.847656 1354.917969 395.847656 1354.917969 396.25 1358.75 C 397.085938 1361.398438 397.085938 1361.398438 398.75 1363.75 C 401.179688 1365.261719 401.179688 1365.261719 404.140625 1366.25 L 407.511719 1367.511719 C 411.511719 1368.835938 415.546875 1369.960938 419.609375 1371.09375 C 425.558594 1372.90625 430.320312 1374.714844 434.773438 1379.136719 C 436.25 1381.25 436.25 1381.25 437.65625 1386.015625 C 437.882812 1391.921875 436.410156 1397.25 433.75 1402.5 C 430.421875 1406.210938 427.789062 1407.390625 423.125 1409.140625 C 414.996094 1410.863281 406.195312 1410.039062 398.203125 1407.953125 C 393.480469 1406.261719 389.1875 1403.996094 385 1401.25 L 386.25 1396.25 C 388.4375 1395.480469 388.4375 1395.480469 391.25 1395 C 393.75 1395.925781 393.75 1395.925781 396.25 1397.34375 C 401.371094 1400.203125 405.769531 1401.441406 411.640625 1401.640625 C 415.707031 1401.574219 418.824219 1401.070312 422.5 1399.296875 L 426.25 1396.25 C 428.121094 1392.011719 428.121094 1392.011719 427.5 1387.5 C 424.925781 1384.125 422.554688 1381.820312 418.628906 1380.109375 C 415.597656 1379.105469 412.539062 1378.183594 409.453125 1377.34375 C 395.835938 1373.449219 395.835938 1373.449219 390 1370 C 387.0625 1365.789062 386.28125 1362.753906 385.625 1357.65625 C 385.792969 1353.507812 386.902344 1350.6875 388.984375 1347.109375 C 391.085938 1344.078125 392.71875 1342.332031 395.703125 1340.078125 C 405.144531 1335.960938 416.679688 1336.054688 426.40625 1339.21875 M 1459.898438 1341.039062 L 1462.5 1342.5 L 1463.75 1346.25 L 1460 1350 L 1457.660156 1349.179688 C 1450.429688 1346.800781 1443.875 1345.191406 1436.25 1346.25 C 1432.945312 1347.175781 1430.554688 1348.316406 1427.5 1350 L 1425 1353.75 C 1424.703125 1358.136719 1424.703125 1358.136719 1426.25 1362.5 C 1432.796875 1367.953125 1441.082031 1369.226562 1449.222656 1371.09375 C 1455.367188 1373.003906 1459.671875 1375.882812 1464.140625 1380.46875 C 1466.25 1383.75 1466.25 1383.75 1467.5 1387.1875 C 1467.5 1392.175781 1466.226562 1395.496094 1464.039062 1399.9375 C 1461.90625 1403.492188 1459.835938 1405.417969 1456.25 1407.5 C 1449.550781 1410.074219 1443.332031 1410.730469 1436.25 1410 C 1427.90625 1408.390625 1420.886719 1405.847656 1413.75 1401.25 C 1414.6875 1398.828125 1414.6875 1398.828125 1416.25 1396.25 C 1418.53125 1395.316406 1418.53125 1395.316406 1421.25 1395 C 1423.792969 1395.925781 1423.792969 1395.925781 1426.328125 1397.34375 C 1432.554688 1400.761719 1437.308594 1401.539062 1444.359375 1401.433594 C 1448.371094 1401.199219 1451.425781 1400.625 1455 1398.75 C 1457.042969 1395.464844 1457.464844 1393.210938 1457.65625 1389.375 C 1456.355469 1385.875 1456.355469 1385.875 1452.5 1383.125 C 1446.355469 1379.550781 1439.570312 1377.875 1432.710938 1376.203125 C 1426.191406 1374.511719 1422.359375 1372.195312 1417.5 1367.5 C 1415.703125 1364.765625 1415.703125 1364.765625 1415 1361.25 C 1414.949219 1356.957031 1415.296875 1352.9375 1416.25 1348.75 C 1418.566406 1344.859375 1420.644531 1342.933594 1424.296875 1340.3125 C 1435.558594 1334.820312 1448.613281 1336.824219 1459.898438 1341.039062 " fill-opacity="1" fill-rule="nonzero"/><path fill="#ba181b" d="M 1153.75 870 L 1156.25 870 L 1156.25 1156.25 L 1153.75 1156.25 L 1152.5 1130 L 1151.25 1130 L 1150 882.5 L 1152.5 883.75 Z M 1153.75 870 " fill-opacity="1" fill-rule="nonzero"/><path fill="#fefefd" d="M 91.25 1338.75 C 96.707031 1340.355469 101.515625 1343.132812 106.25 1346.25 L 105 1351.25 C 102.5 1352.1875 102.5 1352.1875 98.75 1352.5 C 96.679688 1351.46875 96.679688 1351.46875 94.375 1350.078125 C 89.726562 1347.550781 85.90625 1347.015625 80.625 1346.875 C 74.664062 1347.09375 69.824219 1347.683594 64.648438 1350.730469 C 59.957031 1354.589844 56.453125 1359.589844 53.75 1365 C 53.109375 1371.480469 52.605469 1378.136719 54.882812 1384.324219 C 58.179688 1389.84375 62.242188 1393.851562 67.5 1397.5 C 72.921875 1400.085938 78.222656 1400.582031 84.164062 1400.503906 C 89.132812 1399.753906 93.023438 1397.609375 97.339844 1395.117188 C 100 1393.75 100 1393.75 103.75 1393.75 L 106.25 1400 C 102.042969 1404.042969 98.046875 1406.964844 92.40625 1408.640625 C 83.644531 1410.199219 75.976562 1410.34375 67.5 1407.5 C 61.472656 1405.078125 55.867188 1402.117188 51.25 1397.5 C 46.195312 1389.945312 42.953125 1382.402344 42.109375 1373.28125 C 42.789062 1365.398438 45.039062 1358.804688 49.53125 1352.265625 C 53.792969 1346.921875 59.042969 1343.277344 65 1340 C 73.019531 1337.324219 82.882812 1337.652344 91.25 1338.75 M 845 1338.75 C 850.394531 1340.695312 855.167969 1343.175781 860 1346.25 L 860 1351.25 L 857.5 1353.75 C 854.21875 1353.28125 854.21875 1353.28125 851.25 1352.5 L 851.25 1350 C 842.996094 1347.859375 835.207031 1346.09375 826.816406 1348.359375 C 821.570312 1350.222656 817.964844 1352.074219 813.828125 1355.859375 C 810.183594 1361.710938 807.734375 1367.167969 807.332031 1374.121094 C 807.640625 1379.367188 808.910156 1383.351562 811.5625 1387.890625 C 814.320312 1391.878906 817.148438 1394.835938 821.25 1397.5 C 827.179688 1400.289062 832.257812 1400.503906 838.734375 1400.414062 C 843.296875 1399.914062 846.46875 1398.589844 850.351562 1396.214844 C 852.75 1394.859375 854.777344 1394.15625 857.5 1393.75 C 859.6875 1395.546875 859.6875 1395.546875 861.25 1397.5 L 860 1401.25 C 853.292969 1406.101562 845.65625 1409.296875 837.441406 1410.316406 C 830.605469 1410.691406 824.730469 1409.265625 818.394531 1406.734375 C 811.621094 1403.273438 806.453125 1398.660156 801.945312 1392.554688 C 798.296875 1385.886719 798 1378.65625 798.074219 1371.199219 C 798.378906 1364.597656 799.691406 1359.480469 803.050781 1353.8125 C 807.585938 1347.847656 813.347656 1343.417969 820 1340 C 827.667969 1337.5 837.050781 1337.601562 845 1338.75 M 952.753906 1339.78125 C 957.113281 1341.496094 960.421875 1342.921875 963.75 1346.25 C 963.28125 1348.90625 963.28125 1348.90625 962.5 1351.25 C 960.316406 1352.027344 960.316406 1352.027344 957.5 1352.5 C 955.035156 1351.527344 955.035156 1351.527344 952.421875 1350.078125 C 946.71875 1347.371094 941.992188 1346.835938 935.71875 1347.101562 C 929.390625 1347.886719 924.992188 1350.421875 919.765625 1353.90625 C 916 1357.285156 913.894531 1361.078125 912.03125 1365.753906 C 910.726562 1370.761719 911.230469 1375.027344 912.5 1380 C 914.722656 1386.554688 917.597656 1391.347656 922.5 1396.25 C 927.957031 1399.589844 932.289062 1400.296875 938.671875 1400.546875 C 943.699219 1400.433594 947.394531 1399.871094 951.875 1397.578125 L 954.101562 1396.214844 C 956.5 1394.859375 958.527344 1394.15625 961.25 1393.75 C 963.4375 1395.546875 963.4375 1395.546875 965 1397.5 C 964.296875 1399.6875 964.296875 1399.6875 962.5 1402.5 C 956.222656 1406.855469 950.121094 1409.226562 942.5 1410 C 934.261719 1410 925.996094 1409.136719 918.75 1405 C 912.753906 1400.765625 907.667969 1396.253906 904.375 1389.609375 C 901.3125 1381.449219 900.523438 1372.820312 901.875 1364.21875 C 903.703125 1357.453125 907.613281 1352.414062 912.5 1347.5 C 924.25 1338.0625 938.144531 1336.019531 952.753906 1339.78125 " fill-opacity="1" fill-rule="nonzero"/><path fill="#0b090a" d="M 588.75 1346.25 L 600.078125 1346.015625 L 603.59375 1345.914062 C 610.480469 1345.84375 615.15625 1346.75 621.25 1350 C 624.296875 1352.578125 624.296875 1352.578125 626.25 1356.25 C 626.945312 1360.542969 626.917969 1364.453125 626.25 1368.75 C 624.296875 1373.046875 624.296875 1373.046875 621.25 1376.25 C 615.183594 1379.550781 610.46875 1380.40625 603.59375 1380.335938 L 600.078125 1380.234375 L 588.75 1380 Z M 588.75 1346.25 " fill-opacity="1" fill-rule="nonzero"/><path fill="#fefefd" d="M 477.5 1338.75 L 532.5 1338.75 L 533.75 1345 L 532.5 1346.25 L 511.25 1346.25 L 510 1408.75 L 501.25 1408.75 L 500 1407.5 C 499.890625 1405.578125 499.84375 1403.65625 499.859375 1401.734375 L 499.859375 1398.019531 L 499.878906 1393.980469 L 499.882812 1389.863281 C 499.890625 1385.507812 499.90625 1381.152344 499.921875 1376.796875 C 499.929688 1373.851562 499.933594 1370.90625 499.9375 1367.960938 C 499.953125 1360.722656 499.972656 1353.484375 500 1346.25 L 495.710938 1346.292969 C 493.859375 1346.304688 492.007812 1346.316406 490.15625 1346.328125 L 487.328125 1346.359375 C 480.285156 1346.390625 480.285156 1346.390625 477.5 1345 Z M 1015 1338.75 L 1025 1338.75 L 1023.75 1408.75 L 1015 1408.75 Z M 1015 1338.75 " fill-opacity="1" fill-rule="nonzero"/></svg>